<svg xmlns:xlink="http://www.w3.org/1999/xlink" viewBox="518.113826 518.7745416666667 5807.04758 5727.410208333334" style="max-height: 500px" version="1.1" xml:space="preserve" xmlns="http://www.w3.org/2000/svg" width="5807.04758" height="5727.410208333334">
 <defs>
  <style type="text/css">
   
    .str2 {stroke:#727271;stroke-width:7.61;stroke-miterlimit:22.9256}
    .str11 {stroke:#727271;stroke-width:9.88;stroke-miterlimit:22.9256}
    .str4 {stroke:#727271;stroke-width:9.88;stroke-miterlimit:22.9256}
    .str7 {stroke:#727271;stroke-width:9.88;stroke-miterlimit:22.9256}
    .str9 {stroke:#727271;stroke-width:9.88;stroke-miterlimit:22.9256}
    .str5 {stroke:#727271;stroke-width:9.88;stroke-miterlimit:22.9256}
    .str3 {stroke:#727271;stroke-width:9.88;stroke-miterlimit:22.9256}
    .str0 {stroke:#727271;stroke-width:9.88;stroke-miterlimit:22.9256}
    .str1 {stroke:#2B2A29;stroke-width:9.88;stroke-miterlimit:22.9256}
    .str6 {stroke:#727271;stroke-width:9.88;stroke-miterlimit:22.9256}
    .str8 {stroke:#727271;stroke-width:9.88;stroke-miterlimit:22.9256}
    .str10 {stroke:#727271;stroke-width:9.88;stroke-miterlimit:22.9256}
    .fil1 {fill:none}
    .fil21 {fill:#003F84}
    .fil23 {fill:#00507D}
    .fil24 {fill:#006939}
    .fil0 {fill:#016436}
    .fil4 {fill:#0175B0}
    .fil2 {fill:#01803D}
    .fil22 {fill:#0F318A}
    .fil7 {fill:#191D42}
    .fil5 {fill:#1A51A1}
    .fil20 {fill:#2A5EA9}
    .fil6 {fill:#3B2578}
    .fil8 {fill:#492B8B}
    .fil3 {fill:#4E8C37}
    .fil9 {fill:#6A2077}
    .fil11 {fill:#78205A}
    .fil10 {fill:#8D1D69}
    .fil25 {fill:#99C731}
    .fil12 {fill:#BC1251}
    .fil14 {fill:#BD0483}
    .fil15 {fill:#E30083}
    .fil13 {fill:#E73C0E}
    .fil17 {fill:#EC7300}
    .fil16 {fill:#F19100}
    .fil18 {fill:#F5A301}
    .fil19 {fill:#FFEB01}
    .fil26 {fill:#2B2A29;fill-rule:nonzero}
   
  </style>
 </defs>
 <g id="Layer_x0020_1">
  <metadata id="CorelCorpID_0Corel-Layer"/>
  <g id="_2575025407360">
   <g>
    <polygon points="4313.55,5976.7 4717.55,5338.81 4110.39,4334.69 3452.41,3627.15" class="fil0"/>
    <g>
     <polygon points="4313.55,5976.7 3300.61,4937 3452.41,3627.15" class="fil1 str0"/>
    </g>
    <g>
     <polygon points="2325.62,4855.85 3300.61,4937 3452.41,3627.15" class="fil1 str1"/>
    </g>
    <polygon points="2325.62,4855.85 3300.61,4937 3452.41,3627.15" class="fil1 str2"/>
    <polygon points="5565.09,4872.28 4655,4940.15 4110.39,4334.69 4143.31,4330.2" class="fil2"/>
    <polygon points="5565.09,4872.28 5037.42,4064.09 4101.29,4299.08 4110.39,4334.69" class="fil3"/>
    <polygon points="3906.89,3101.79 5020.03,4086.41 4101.29,4299.08 3924.52,3606.93" class="fil4"/>
    <polygon points="3906.89,3101.79 5026.22,4105.89 5591.05,3636.56 4879.02,3135.3" class="fil5"/>
    <polygon points="5900.81,3470.51 5591.05,3636.56 5427.73,2701.89" class="fil5"/>
    <polygon points="5591.05,3636.56 5472.76,2781.12 5427.73,2701.89 5335.64,3099.71 4879.02,3135.3" class="fil6"/>
    <polygon points="5428.63,2702.07 5358.85,3114.62 5053.97,2948.42" class="fil7"/>
    <polygon points="3906.89,3101.79 4906.79,3154.85 5335.64,3099.71 5053.97,2948.42 4881.72,2940.69" class="fil8"/>
    <polygon points="5310.5,2509.34 5452.87,2686.82 5073.79,2959.06 4865.02,2943.45" class="fil9"/>
    <polygon points="5310.5,2509.34 3910.14,3097.52 3911.72,3101.96 4871.69,2950.76" class="fil10"/>
    <polygon points="5310.5,2509.34 3906.89,3101.79 4336.76,2493.97" class="fil11"/>
    <polygon points="3592.78,2628.62 3906.89,3101.79 4355.2,2507.22 4112.4,1342.05" class="fil12"/>
    <g>
     <polygon points="3592.78,2628.62 3906.89,3101.79 3924.52,3606.93 3452.41,3627.15 3084.54,3011.71 3107.86,2674.39" class="fil1 str3"/>
    </g>
    <g>
     <polygon points="3592.78,2628.62 3137.41,1457.31 4112.4,1342.05" class="fil1 str3"/>
    </g>
    <polygon points="4869.14,1753.86 4342.86,2525.3 4112.4,1342.05" class="fil13"/>
    <polygon points="5310.5,2509.34 4869.14,1753.86 4342.86,2525.3" class="fil14"/>
    <polygon points="5310.5,2509.34 4869.14,1753.86 5686.81,2429.87" class="fil15"/>
    <polygon points="5533.17,1801.57 4869.14,1753.86 5686.81,2429.87" class="fil16"/>
    <polygon points="5533.17,1801.57 4869.14,1753.86 4396.14,841.17 5221.59,1308.58" class="fil17"/>
    <polygon points="4112.4,1342.05 4869.14,1753.86 4396.14,841.17 3480.01,747.93" class="fil18"/>
    <polygon points="3997.09,1314.21 2618.77,1020.1 3372.66,708.17" class="fil19"/>
    <polygon points="5310.5,2509.34 5430.39,2708.4 5619.05,2704.79 5686.81,2429.87" class="fil9"/>
    <polygon points="5873.15,3485.6 6036.39,3557.03 5619.05,2704.79 5428.2,2704.54" class="fil20"/>
    <polygon points="5861.6,3465.26 6036.39,3557.03 5980.89,3631.25 5591.05,3636.56" class="fil21"/>
    <polygon points="5265.9,4099.61 5026.22,4105.89 5591.05,3636.56 5773.62,3865.21" class="fil22"/>
    <polygon points="5265.9,4099.61 5422.54,4095.51 5503.76,4131.19 5733.28,4044.55 5773.62,3865.21" class="fil4"/>
    <polygon points="5667.14,4202.97 5503.76,4131.19 5636.59,4081.05 5709.8,4145.75" class="fil23"/>
    <polygon points="5565.09,4872.28 5004.12,4086.06 5422.54,4095.51 5667.14,4202.97" class="fil24"/>
    <polygon points="3452.41,3627.15 3924.52,3606.93 4110.39,4334.69" class="fil25"/>
    <g>
     <polygon points="1966.1,4697.24 2200.9,3890.17 3062.13,3526.42" class="fil1 str4"/>
    </g>
    <g>
     <polygon points="1606.58,4253.12 1175.22,3520.07 1401.98,3304.36" class="fil1 str5"/>
    </g>
    <g>
     <polygon points="857.04,2586.43 1007.24,3323.17 1249.26,3178.19 1340.45,2281.93" class="fil1 str6"/>
    </g>
    <g>
     <polygon points="745.66,2392.91 927.59,1649.28 1846.35,1546.59 1237.08,2125.83" class="fil1 str7"/>
    </g>
    <g>
     <polygon points="1638.3,2721.63 1766.78,1860.41 2399.57,2433.88 2354.22,2745.87" class="fil1 str8"/>
    </g>
    <g>
     <polygon points="1824.83,3827.54 1646.86,2879.71 2346.27,2873.58 2700.65,3465.37" class="fil1 str9"/>
    </g>
    <g>
     <polygon points="2584.32,2415.18 2006.61,1867.07 2599.44,1321.32 3032.7,2361.12" class="fil1 str10"/>
    </g>
    <g>
     <polygon points="1065.37,1382.55 1593.57,941.04 2892.57,1208.06" class="fil1 str11"/>
    </g>
   </g>
   <g>
    <path d="M15458.12 2753.68l0 1051.41 -353.85 0 0 -1291.52c0,-159.36 123.48,-231.79 270.18,-231.79 108.88,0 200.34,47.77 263.3,136.54l649.14 915.11 0 -1040.67 353.85 0 0 1284.94c0,159.58 -123.75,231.78 -270.54,231.78 -109.19,0 -199.8,-49.9 -261.48,-138.87l-650.61 -916.93z" class="fil5"/>
    <path d="M14129.97 2292.76l829.67 0 0 305.58 -831.94 0 0 297.8 714.91 0 0 303.38 -714.91 0 0 299.99 831.94 0 0 305.58 -829.67 0c-70.85,0 -139.99,-13.65 -204.04,-44.39l-1.95 -0.96c-89.01,-44.78 -150.13,-120.33 -150.13,-223.36l0 -1092.23c0,-49.17 132.47,-151.39 356.12,-151.39z" class="fil5"/>
    <path d="M13271.72 3414.77l0 -191.11 -832.67 0 0 -305.58 830.4 0c70,0 138.79,12.25 202.42,42.15 92.73,43.55 153.68,121.66 153.68,226.19l0 636.23 -353.84 0 0 -61.23c-141.4,45.68 -289.61,65.62 -439.99,65.62 -240.42,0 -478.37,-44.11 -691.18,-159.67 -243.67,-132.31 -391.54,-336.94 -391.54,-619.9 0,-281.66 149.98,-485.31 393.52,-617.06 212.45,-114.93 449.3,-159.58 689.2,-159.58 267.72,0 524.07,61.55 746.83,214.22l160.63 110.1 -326.76 169.29 -57.86 -40.65c-154.48,-108.53 -336.75,-147.39 -523.19,-147.39 -173.12,0 -345.14,30.96 -497.69,115.84 -141.46,78.71 -226.43,186.81 -226.43,353.02 0,166.48 82.83,276.12 225.63,356.13 152.32,85.35 325.48,115.68 498.49,115.68 155.54,0 304.68,-29.79 440.35,-102.3z" class="fil5"/>
    <path d="M10724.81 3401.08l-114.33 240.24c-53.77,113.01 -148.18,183.51 -275.31,183.51 -126.37,0 -220.5,-71.31 -273.87,-183.53l-641.31 -1348.54 379.73 0 535.03 1129.55 199.02 -423.37 -338.4 -706.18 380.25 0 536.92 1130.25 537.48 -1130.25 379.6 0 -641.3 1348.54c-53.85,113.24 -148.85,183.53 -276.06,183.53 -126.42,0 -220.29,-71.34 -273.56,-183.64l-113.88 -240.11z" class="fil0"/>
    <path d="M8187.6 2444.14c25.99,-46.63 68.01,-83.55 121.08,-108.91 64.08,-30.62 134.33,-42.48 204.96,-42.48l829.66 0 0 305.58 -831.93 0 0 297.8 714.91 0 0 303.38 -714.91 0 0 299.99 831.93 0 0 305.58 -829.66 0c-70.85,0 -139.99,-13.65 -204.04,-44.39l-1.95 -0.96c-89.01,-44.78 -150.13,-120.33 -150.13,-223.36l0 -1092.23 30.08 0z" class="fil0"/>
    <path d="M6829.54 2753.68l0 1051.41 -353.85 0 0 -1291.52c0,-159.36 123.48,-231.79 270.18,-231.79 108.88,0 200.34,47.77 263.3,136.54l649.14 915.11 0 -1040.67 353.85 0 0 1284.94c0,159.58 -123.75,231.78 -270.54,231.78 -109.19,0 -199.8,-49.9 -261.48,-138.87l-650.61 -916.93z" class="fil0"/>
   </g>
   <path d="M7038.02 4148.03l-254.02 0 0 563.35 -56.33 0 0 -563.35 -251.96 0 0 -33.79 562.32 0 0 33.79zm621.24 563.35l-332.89 0c-26.46,0 -50.36,-5.13 -71.69,-15.37 -26.81,-13.48 -40.12,-31.92 -40.12,-55.64l0 -455.46 0.34 0c0,-24.93 13.15,-43.7 39.27,-56.16 20.31,-9.73 44.38,-14.51 72.2,-14.51l332.89 0 0 33.79 -337.49 0c-33.97,3.42 -50.87,15.54 -50.87,36.37l0 211.51 333.74 0 0 32.77 -333.74 0 0 212.54c0,20.82 16.9,32.94 50.87,36.36l337.49 0 0 33.8zm945.25 -516.91l-42.52 22.02c-74.6,-52.42 -166.43,-78.71 -275.52,-78.71 -99.69,0 -185.9,20.32 -258.8,60.95 -89.11,49.5 -133.66,120.35 -133.66,212.36 0,92.7 44.38,163.89 133.15,213.73 72.72,40.63 159.1,60.94 259.31,60.94 106.52,0 198.37,-27.14 275.52,-81.25l30.05 34.14c-86.55,55.3 -188.29,82.96 -305.4,82.96 -114.38,0 -213.22,-22.7 -296.69,-67.94 -102.95,-55.99 -154.32,-136.4 -154.32,-241.55 0,-103.96 51.73,-184.03 155.17,-240.19 83.99,-45.23 182.66,-67.93 295.84,-67.93 124.11,0 229.95,30.22 317.87,90.48zm770.45 516.91l-57.36 0 0 -297.04 -480.38 0 0 297.04 -56.33 0 0 -597.14 56.33 0 0 267.33 480.38 0 0 -267.33 57.36 0 0 597.14zm784.45 -51.73c0,35.85 -23.9,53.78 -71.87,53.78 -32.26,0 -58.21,-13.83 -77.51,-41.66l-369.07 -520.15c-3.93,-5.81 -9.39,-8.7 -16.57,-8.7 -11.43,0 -17.07,5.12 -17.07,15.37l0 553.1 -56.33 0 0 -548.49c0,-35.85 23.9,-53.78 71.69,-53.78 32.95,0 59.07,13.66 78.54,40.8l368.73 519.81c4.1,5.98 9.73,8.88 16.56,8.88 11.1,0 16.57,-4.96 16.57,-14.69l0 -549.68 56.33 0 0 545.41zm1026.85 -247.53c0,100.21 -39.61,175.66 -118.81,226.53 -86.21,55.3 -188.13,82.96 -305.4,82.96 -130.08,0 -238.14,-30.05 -324.18,-90.14 -67.76,-47.45 -101.74,-120.52 -101.74,-219.36 0,-98.33 34.31,-171.56 103.11,-219.36 85.01,-59.24 192.73,-88.77 322.82,-88.77 129.05,0 236.44,30.05 321.96,90.13 68.11,47.46 102.26,120.18 102.26,218zm-58.38 -1.03c0,-88.77 -27.83,-153.12 -83.48,-193.24 -74.08,-53.43 -168.14,-80.06 -282.35,-80.06 -115.24,0 -209.98,26.64 -284.07,79.72 -55.64,40.12 -83.47,104.64 -83.47,193.58 0,89.12 27.83,153.81 83.47,194.1 74.61,53.78 169.35,80.57 284.07,80.57 114.21,0 208.27,-26.97 282.35,-80.91 55.65,-40.46 83.48,-104.98 83.48,-193.76zm1004.15 300.28l-56.33 0 0 -556.17c0,-8.87 -4.62,-13.32 -13.83,-13.32 -7,0 -12.63,4.45 -16.91,13.32l-224.48 503.26c-15.88,36.02 -40.12,53.95 -73.07,53.95 -32.77,0 -57.01,-17.93 -72.89,-53.78l-224.49 -503.43c-4.27,-8.87 -9.9,-13.32 -16.9,-13.32 -9.39,0 -14,4.45 -14,13.32l0 557.2 -56.33 0 0 -556.17c0,-31.41 23.04,-47.12 69.3,-47.12 36.19,0 60.26,13.32 72.21,39.78l227.38 511.96c4.28,9.04 9.56,13.66 16.05,13.66 6.15,0 11.27,-4.27 15.2,-12.98l228.58 -512.3c11.78,-26.8 36.02,-40.12 72.89,-40.12 45.07,0 67.6,15.54 67.6,46.77l0 555.49zm769.59 0l-56.33 0 0 -297.04 -480.38 0 0 297.04 -56.33 0 0 -386.31c0,-76.14 31.92,-133.67 95.59,-172.76 52.93,-32.26 120.01,-48.31 201.61,-48.31 94.23,0 168.15,21.5 221.58,64.7 49.51,39.95 74.26,92.18 74.26,156.37l0 386.31zm-56.33 -329.81l0 -43.53c0,-133.49 -79.72,-200.25 -239.33,-200.25 -160.64,0 -241.04,66.76 -241.04,200.25l0 43.53 480.38 0zm747.75 -233.54l-254.02 0 0 563.35 -56.33 0 0 -563.35 -251.96 0 0 -33.79 562.32 0 0 33.79zm621.24 563.35l-332.89 0c-26.46,0 -50.36,-5.13 -71.69,-15.37 -26.81,-13.48 -40.12,-31.92 -40.12,-55.64l0 -455.46 0.34 0c0,-24.93 13.15,-43.7 39.27,-56.16 20.31,-9.73 44.38,-14.51 72.2,-14.51l332.89 0 0 33.79 -337.49 0c-33.97,3.42 -50.87,15.54 -50.87,36.37l0 211.51 333.74 0 0 32.77 -333.74 0 0 212.54c0,20.82 16.9,32.94 50.87,36.36l337.49 0 0 33.8zm1076.7 0l-332.89 0c-26.97,0 -50.7,-4.95 -71.35,-14.68 -26.97,-12.64 -40.46,-31.41 -40.46,-56.16l0 -526.3 56.33 0 0 526.98c0,21 16.9,32.94 50.87,36.36l337.49 0 0 33.8zm621.07 0l-332.89 0c-26.97,0 -50.7,-4.95 -71.35,-14.68 -26.97,-12.64 -40.46,-31.41 -40.46,-56.16l0 -526.3 56.33 0 0 526.98c0,21 16.9,32.94 50.87,36.36l337.49 0 0 33.8zm727.42 -424.55c0,54.29 -30.39,99.52 -91.33,136.05 -51.9,31.24 -126.16,46.78 -222.44,46.78l-180.95 0 0 241.72 -56.33 0 0 -534.49c0,-24.75 13.49,-43.53 40.46,-56.33 20.82,-9.73 44.55,-14.51 71.35,-14.51l167.64 0c68.96,0 128.2,12.8 177.7,38.41 62.66,31.92 93.89,79.37 93.89,142.37zm-58.38 0.51c0,-52.07 -23.73,-91.17 -71.35,-117.45 -37.73,-20.65 -85.02,-31.06 -141.35,-31.06l-172.76 0c-33.97,3.42 -50.87,15.54 -50.87,36.53l0 260.51 200.59 0c60.09,0 110.96,-9.73 152.78,-29.37 55.3,-25.78 82.96,-65.38 82.96,-119.15z" class="fil26"/>
  </g>
  <polygon points="-0,0 17386.37,0 17386.37,6684.88 -0,6684.88" class="fil1"/>
 </g>
</svg>